<svg xmlns="http://www.w3.org/2000/svg" width="218" height="218" viewBox="0 0 218 218">
    <defs>
        <filter id="a" x="0" y="0" width="218" height="218" filterUnits="userSpaceOnUse">
            <feOffset dy="1" input="SourceAlpha"/>
            <feGaussianBlur stdDeviation="3" result="b"/>
            <feFlood flood-opacity="0.2"/>
            <feComposite operator="in" in2="b"/>
            <feComposite in="SourceGraphic"/>
        </filter>
    </defs>
    <g transform="translate(-166 -10)">
        <g transform="matrix(1, 0, 0, 1, 166, 10)" filter="url(#a)">
            <rect width="200" height="200" rx="35" transform="translate(9 8)" fill="rgba(0,0,0,0.3)"/>
        </g>
        <g transform="translate(195.004 571.415)">
            <path d="M82.812-496.309c-16.937,3.513-25.3,5.338-25.886,5.633a4.043,4.043,0,0,0-1.276.981c-.412.55-.412.707-.51,29.537-.1,27.4-.118,29.026-.451,29.772-1.1,2.453-2.983,3.14-9.2,3.435-5.574.255-8.164.844-10.6,2.414C32.236-422.83,31-420.416,31-416.844c0,5.652,3.179,9.813,8.537,11.187a24.391,24.391,0,0,0,7.733.53c7.046-.687,11.187-3.4,13.346-8.753.275-.726.314-3.4.412-28.281.1-25.4.118-27.515.432-28.084a2.085,2.085,0,0,1,.883-.824c.412-.177,32.441-7.222,39.958-8.792,1.55-.334,2.2-.216,2.649.471.314.471.334,1.982.334,19.371v18.841l-.51,1.1c-.942,2-2.12,2.493-6.653,2.748-7.438.432-9.44.746-12.07,2.021a7.607,7.607,0,0,0-3.964,3.768,6.431,6.431,0,0,0-.8,3.572,10.411,10.411,0,0,0,3.277,8.675c2.944,2.9,6.771,4.161,12.678,4.161,3.925,0,6.575-.726,9.067-2.512a11.687,11.687,0,0,0,3.69-4.475c1.354-2.826,1.276-.078,1.276-40.351V-498.9l-.432-.864a2.619,2.619,0,0,0-2.218-1.649C108.07-501.49,100.377-499.959,82.812-496.309Z"
                  transform="translate(0)" fill="rgba(0,0,0,0.3)"/>
        </g>
    </g>
</svg>
